<svg width="82" height="78" fill="none" xmlns="http://www.w3.org/2000/svg"><g filter="url(#a)" fill="#81B3D2"><path d="M73.9 46.7H8.1A4.2 4.2 0 0 0 4 51v3.5c0 2.4 1.9 4.3 4.1 4.3H9v1.1A10 10 0 0 0 18.6 70h44.6c5.3 0 9.6-4.5 9.6-10.1v-1.1h.9c2.3 0 4.1-1.9 4.1-4.3V51a4 4 0 0 0-3.9-4.3ZM70 59.9c0 3.9-3 7-6.7 7H18.6a6.9 6.9 0 0 1-6.7-7v-1.1H70v1.1Zm5.1-5.4c0 .7-.6 1.3-1.2 1.3H8c-.7 0-1.2-.6-1.2-1.3V51c0-.7.6-1.3 1.2-1.3h65.8c.7 0 1.2.6 1.2 1.3l.1 3.5ZM19.6 38.4l5.4 4.1 5.3-4.1 5.3 4.1 5.3-4.1 5.4 4.1 5.3-4.1 5.3 4.1 5.4-4.1 5.3 4.1 6.2-4.7-1.7-2.5-4.5 3.4-5.3-4.1-5.4 4.1-5.3-4.1-5.3 4.1-5.4-4.1-5.3 4.1-5.3-4.1-5.3 4.1-5.4-4.1-5.3 4.1-4.5-3.4-1.7 2.5 6.2 4.7 5.3-4.1ZM12 31.5h60.8l.1-1.9v-1.2C72.2 12.7 58.2 0 41 0 23.7 0 9.7 12.7 9 28.5v1.2l.1 1.9H12v-.1ZM41 3c15.6 0 28.4 11.3 29 25.5H12C12.6 14.4 25.4 3 41 3Z"/><path d="M41 17.3a2 2 0 0 0 1.9-2 2 2 0 0 0-1.9-2 2 2 0 0 0-1.9 2c0 1.1.9 2 1.9 2ZM33.2 12.2a2 2 0 0 0 1.9-2 2 2 0 0 0-1.9-2 2 2 0 0 0-1.9 2c0 1.1.9 2 1.9 2ZM48.7 12.2a2 2 0 0 0 1.9-2 2 2 0 0 0-1.9-2 2 2 0 0 0-1.9 2c0 1.1.9 2 1.9 2Z"/></g><defs><filter id="a" x="0" y="0" width="82" height="78" filterUnits="userSpaceOnUse" color-interpolation-filters="sRGB"><feFlood flood-opacity="0" result="BackgroundImageFix"/><feColorMatrix in="SourceAlpha" values="0 0 0 0 0 0 0 0 0 0 0 0 0 0 0 0 0 0 127 0" result="hardAlpha"/><feOffset dy="4"/><feGaussianBlur stdDeviation="2"/><feComposite in2="hardAlpha" operator="out"/><feColorMatrix values="0 0 0 0 0 0 0 0 0 0 0 0 0 0 0 0 0 0 0.25 0"/><feBlend in2="BackgroundImageFix" result="effect1_dropShadow_24196_761"/><feColorMatrix in="SourceAlpha" values="0 0 0 0 0 0 0 0 0 0 0 0 0 0 0 0 0 0 127 0" result="hardAlpha"/><feOffset dy="4"/><feGaussianBlur stdDeviation="2"/><feComposite in2="hardAlpha" operator="out"/><feColorMatrix values="0 0 0 0 0 0 0 0 0 0 0 0 0 0 0 0 0 0 0.25 0"/><feBlend in2="effect1_dropShadow_24196_761" result="effect2_dropShadow_24196_761"/><feBlend in="SourceGraphic" in2="effect2_dropShadow_24196_761" result="shape"/></filter></defs></svg>